<?xml version="1.0" encoding="UTF-8" standalone="no"?>
<svg width="896px" height="960px" viewBox="0 0 896 960" version="1.1" xmlns="http://www.w3.org/2000/svg" xmlns:xlink="http://www.w3.org/1999/xlink">
    <!-- Generator: Sketch 3.7.2 (28276) - http://www.bohemiancoding.com/sketch -->
    <title>Shape</title>
    <desc>Created with Sketch.</desc>
    <defs></defs>
    <g id="Page-1" stroke="none" stroke-width="1" fill="none" fill-rule="evenodd">
        <path d="M128,768 L384,768 L384,832 L128,832 L128,768 L128,768 Z M448,384 L128,384 L128,448 L448,448 L448,384 L448,384 Z M576,576 L576,448 L384,640 L576,832 L576,704 L896,704 L896,576 L576,576 L576,576 Z M288,512 L128,512 L128,576 L288,576 L288,512 L288,512 Z M128,704 L288,704 L288,640 L128,640 L128,704 L128,704 Z M704,768 L768,768 L768,896 C767,914 761,929 749,941 C737,953 722,959 704,960 L64,960 C29,960 0,931 0,896 L0,192 C0,157 29,128 64,128 L256,128 C256,57 313,0 384,0 C455,0 512,57 512,128 L704,128 C739,128 768,157 768,192 L768,512 L704,512 L704,320 L64,320 L64,896 L704,896 L704,768 L704,768 Z M128,256 L640,256 C640,221 611,192 576,192 L512,192 C477,192 448,163 448,128 C448,93 419,64 384,64 C349,64 320,93 320,128 C320,163 291,192 256,192 L192,192 C157,192 128,221 128,256 L128,256 Z" id="Shape" fill="#888888"></path>
    </g>
</svg>